<?xml version="1.0" standalone="no"?><!DOCTYPE svg PUBLIC "-//W3C//DTD SVG 1.1//EN" "http://www.w3.org/Graphics/SVG/1.1/DTD/svg11.dtd"><svg t="1575948239386" class="icon" viewBox="0 0 1024 1024" version="1.1" xmlns="http://www.w3.org/2000/svg" p-id="7270" xmlns:xlink="http://www.w3.org/1999/xlink" width="200" height="200"><defs><style type="text/css"></style></defs><path d="M473.6 896c-12.8 0-25.6-6.4-32-12.8-6.4-6.4-6.4-19.2-6.4-25.6L512 160c0-12.8 12.8-25.6 25.6-32 12.8 0 25.6 0 38.4 6.4 12.8 6.4 19.2 19.2 12.8 38.4L512 864c0 19.2-19.2 32-38.4 32z m230.4-179.2c-12.8 0-19.2-6.4-25.6-12.8-12.8-12.8-19.2-38.4 0-51.2l128-140.8-128-140.8c-6.4-12.8-12.8-25.6-6.4-38.4 6.4-12.8 12.8-25.6 25.6-25.6s25.6 0 38.4 12.8l153.6 166.4c12.8 12.8 12.8 38.4 0 51.2L729.6 704c-6.4 12.8-12.8 12.8-25.6 12.8z m-384 0c-12.8 0-19.2-6.4-25.6-12.8L140.8 537.6c-12.8-12.8-12.8-38.4 0-51.2L294.4 320c6.4-12.8 25.6-12.8 38.4-12.8 12.8 0 25.6 12.8 32 25.6 6.4 12.8 0 25.6-6.4 38.4L217.6 512l128 140.8c12.8 12.8 12.8 25.6 6.4 38.4 0 19.2-19.2 25.6-32 25.6z" fill="#515151" p-id="7271"></path></svg>