<?xml version="1.0" standalone="no"?><!DOCTYPE svg PUBLIC "-//W3C//DTD SVG 1.1//EN" "http://www.w3.org/Graphics/SVG/1.1/DTD/svg11.dtd"><svg t="1575948083119" class="icon" viewBox="0 0 1024 1024" version="1.1" xmlns="http://www.w3.org/2000/svg" p-id="3518" xmlns:xlink="http://www.w3.org/1999/xlink" width="200" height="200"><defs><style type="text/css"></style></defs><path d="M288.0289 400.288396c0 30.777933 24.953082 55.731014 55.732613 55.731014s55.733013-24.953082 55.733013-55.731014c0-30.778532-24.953482-55.731014-55.733013-55.731014S288.0289 369.509864 288.0289 400.288396zM622.406792 400.288396c0 30.777933 24.953881 55.731014 55.733013 55.731014 30.779132 0 55.732014-24.953082 55.732014-55.731014 0-30.778532-24.953082-55.731014-55.732014-55.731014C647.360873 344.557382 622.406792 369.509864 622.406792 400.288396zM510.941765 762.511409c-78.007911 0-156.033809-39.054521-200.61998-100.314787-16.763035-22.293685-27.822536-50.114822-39.05632-72.407708-5.528652-16.763634 5.525654-33.437329 16.763634-39.054521 16.763634-5.53025 27.823136 5.529251 33.440327 16.761636 5.528652 22.292885 16.763035 39.05552 27.822137 55.731014 44.586171 55.731014 100.318784 83.640092 161.558463 83.640092 61.266261 0 122.616666-27.820937 156.055794-78.0229 11.146443-16.762635 22.293685-38.968579 27.822936-55.731014 5.616192-16.761636 22.292885-22.292885 33.438329-16.761636 16.764634 5.528252 22.294884 22.290887 16.764634 33.437329-5.617192 27.822137-22.292885 50.114023-39.05652 72.407708C666.993562 723.54283 588.966665 762.511409 510.941765 762.511409zM510.941765 956.900214c-243.33382 0-445.129003-201.789787-445.129003-445.149589 0-243.344412 201.795183-445.134998 445.129003-445.134998 243.351408 0 445.14719 201.790586 445.14719 445.134998C956.088756 755.110427 754.293173 956.900214 510.941765 956.900214zM510.941765 125.999564c-213.638553 0-385.743466 172.100316-385.743466 385.751061 0 213.665135 172.104913 385.761054 385.743466 385.761054 213.655542 0 385.756457-172.095919 385.756457-385.761054C896.698223 298.09988 724.597307 125.999564 510.941765 125.999564z" p-id="3519" fill="#515151"></path></svg>