<?xml version="1.0" standalone="no"?><!DOCTYPE svg PUBLIC "-//W3C//DTD SVG 1.1//EN" "http://www.w3.org/Graphics/SVG/1.1/DTD/svg11.dtd"><svg t="1575948157897" class="icon" viewBox="0 0 1024 1024" version="1.1" xmlns="http://www.w3.org/2000/svg" p-id="4922" xmlns:xlink="http://www.w3.org/1999/xlink" width="200" height="200"><defs><style type="text/css"></style></defs><path d="M537.6 843.7248 537.6 972.8 716.8 972.8C730.9312 972.8 742.4 984.2688 742.4 998.4 742.4 1012.5312 730.9312 1024 716.8 1024L307.2 1024C293.0688 1024 281.6 1012.5312 281.6 998.4 281.6 984.2688 293.0688 972.8 307.2 972.8L486.4 972.8 486.4 843.7248C314.8032 830.592 179.2 686.8736 179.2 512 179.2 497.8688 190.6688 486.4 204.8 486.4 218.9312 486.4 230.4 497.8688 230.4 512 230.4 667.2896 356.7104 793.6 512 793.6 667.264 793.6 793.6 667.2896 793.6 512 793.6 497.8688 805.0688 486.4 819.2 486.4 833.3312 486.4 844.8 497.8688 844.8 512 844.8 686.8736 709.1712 830.592 537.6 843.7248ZM716.8 204.8 715.5456 512C715.5456 617.856 617.856 715.8272 512 715.8272 406.144 715.8272 307.7632 621.0304 307.7632 515.1744L307.2 204.8C307.2 98.944 406.144 0 512 0 617.856 0 716.8 98.944 716.8 204.8ZM665.6 204.8C665.6 127.104 589.696 51.2 512 51.2 434.304 51.2 358.4 127.104 358.4 204.8L357.1456 512.9216C357.1456 590.6176 434.304 665.0368 512 665.0368 589.696 665.0368 666.1632 589.696 666.1632 512L665.6 204.8Z" p-id="4923" fill="#515151"></path></svg>